:FULLY-SPECIFIED
:FORCE-ALL-JOINTS-BE-3DOF
:DEGREES
211
root 8.33032 16.5057 -7.87084 8.02144 0.0992145 -5.76998
lfemur -43.9644 -3.02121 -10.4458
ltibia 20.6764 0 0
lfoot -17.0544 15.5005 0
ltoes -15.0271 0 0
rfemur 10.2027 5.52875 31.4129
rtibia 1.90833e-14 0 0
rfoot -12.3628 5.48057 0
rtoes -7.94378 0 0
lowerback -7.13788 2.38145 3.2314
upperback -0.881891 2.79721 3.76278
thorax 3.05436 1.41186 2.3506
lowerneck -16.0094 -6.48103 -14.5454
upperneck 14.841 -8.22255 14.9955
head 8.51353 -3.37244 6.49326
lclavicle -4.37326e-14 -1.11319e-14 0
lhumerus -50.7834 -11.0215 97.2238
lradius 26.7843 0 0
lwrist 9.87187 0 0
lhand -12.6626 -24.8796 0
lfingers 7.12502 0 0
lthumb 13.4184 4.66819 0
rclavicle -4.37326e-14 -1.11319e-14 0
rhumerus -36.9024 12.3182 -82.4905
rradius 53.1376 0 0
rwrist -27.207 0 0
rhand -32.5618 -28.7367 0
rfingers 7.12502 0 0
rthumb -5.79114 -58.6376 0
212
root 8.34982 16.489 -7.71867 8.14355 -0.195856 -5.93966
lfemur -44.2763 -3.18262 -9.98802
ltibia 20.3147 -0 0
lfoot -17.1385 15.8832 0.00692278
ltoes -15.9519 0 0
rfemur 11.0248 5.62504 31.4956
rtibia 8.48145e-15 0 0
rfoot -12.0695 5.66914 -0.00467544
rtoes -8.35057 0 0
lowerback -7.33127 2.46133 3.36746
upperback -0.884795 2.8802 3.78458
thorax 3.16358 1.45466 2.31487
lowerneck -15.8866 -6.45415 -14.5767
upperneck 14.7411 -8.18873 15.025
head 8.45557 -3.36141 6.51268
lclavicle -2.70305e-14 -1.45772e-15 0
lhumerus -50.8475 -10.939 97.1689
lradius 26.5479 -0 0
lwrist 9.46255 0 0
lhand -13.2452 -26.4892 0.0506292
lfingers 7.12502 0 0
lthumb 12.8565 3.09034 0.0480142
rclavicle -2.70305e-14 -1.45772e-15 0
rhumerus -37.1204 12.5035 -82.7771
rradius 53.3028 -0 0
rwrist -27.1956 0 0
rhand -32.382 -28.5971 -0.000451427
rfingers 7.12502 0 0
rthumb -5.61758 -58.5025 -0.000444399
213
root 8.36932 16.4722 -7.56649 8.25633 -0.479034 -6.08307
lfemur -44.5684 -3.14334 -9.70912
ltibia 20.1027 -0 0
lfoot -17.1193 16.1264 0.0103244
ltoes -17.4145 0 0
rfemur 11.5834 5.73159 31.5562
rtibia -2.1204e-15 0 0
rfoot -12.0643 5.85804 -0.00710727
rtoes -8.91542 0 0
lowerback -7.50704 2.53789 3.48429
upperback -0.878957 2.96073 3.79311
thorax 3.27228 1.49619 2.27637
lowerneck -15.722 -6.42173 -14.6136
upperneck 14.5881 -8.15097 15.0812
head 8.37354 -3.34851 6.54228
lclavicle -1.03285e-14 8.21647e-15 0
lhumerus -50.8648 -10.7687 97.0247
lradius 26.2885 -0 0
lwrist 8.90183 0 0
lhand -14.1662 -28.8913 0.0963154
lfingers 7.12502 0 0
lthumb 11.9684 0.738705 0.0915289
rclavicle -1.03285e-14 8.21647e-15 0
rhumerus -37.3473 12.6846 -83.0751
rradius 53.4738 -0 0
rwrist -27.1729 0 0
rhand -32.1785 -28.4689 -0.000554612
rfingers 7.12502 0 0
rthumb -5.42107 -58.3793 -0.000557366
214
root 8.38882 16.4555 -7.41432 8.36236 -0.754218 -6.20884
lfemur -44.8382 -2.94308 -9.57177
ltibia 20.0244 -0 0
lfoot -17.0215 16.2438 0.0103777
ltoes -19.0733 0 0
rfemur 11.9696 5.84556 31.5995
rtibia -1.27222e-14 0 0
rfoot -12.2412 6.04463 -0.00703953
rtoes -9.56244 0 0
lowerback -7.6653 2.6092 3.58388
upperback -0.87012 3.03635 3.79424
thorax 3.37422 1.53519 2.23923
lowerneck -15.5422 -6.38519 -14.6476
upperneck 14.4156 -8.11021 15.1485
head 8.28226 -3.33382 6.57545
lclavicle 6.37355e-15 1.78906e-14 0
lhumerus -50.8533 -10.5348 96.8127
lradius 26.0145 -0 0
lwrist 8.22004 0 0
lhand -15.2067 -31.6139 0.101891
lfingers 7.12502 0 0
lthumb 10.9651 -1.92698 0.0972001
rclavicle 6.37355e-15 1.78906e-14 0
rhumerus -37.5809 12.8589 -83.3794
rradius 53.6307 -0 0
rwrist -27.1335 0 0
rhand -31.9718 -28.3742 -0.000580439
rfingers 7.12502 0 0
rthumb -5.22149 -58.2896 -0.000589861
215
root 8.40832 16.4388 -7.26215 8.46431 -1.02525 -6.32566
lfemur -45.0841 -2.621 -9.53798
ltibia 20.0636 -0 0
lfoot -16.8696 16.2488 0.00790707
ltoes -20.5866 0 0
rfemur 12.2741 5.96371 31.6305
rtibia -2.33241e-14 0 0
rfoot -12.4941 6.22628 -0.00493574
rtoes -10.2158 0 0
lowerback -7.80615 2.67333 3.66817
upperback -0.864013 3.10465 3.79381
thorax 3.46315 1.57039 2.20756
lowerneck -15.3734 -6.34602 -14.6704
upperneck 14.2569 -8.06754 15.2112
head 8.19655 -3.31747 6.60557
lclavicle 2.30756e-14 2.75648e-14 0
lhumerus -50.8305 -10.2618 96.5546
lradius 25.7341 -0 0
lwrist 7.4475 0 0
lhand -16.1457 -34.184 0.0641862
lfingers 7.12502 0 0
lthumb 10.0595 -4.44628 0.0618112
rclavicle 2.30756e-14 2.75648e-14 0
rhumerus -37.8189 13.024 -83.6847
rradius 53.7538 -0 0
rwrist -27.072 0 0
rhand -31.7825 -28.3353 -0.0005634
rfingers 7.12502 0 0
rthumb -5.0387 -58.2552 -0.000570872
